PathFileType	4	(X/Y/Z)	Patient4_TMGait_0pt4_03_right_16.trc.trc
DataRate	CameraRate	NumFrames	NumMarkers	Units	OrigDataRate	OrigDataStartFrame	OrigNumFrames
72.916666666667	72.916666666667	5	33	mm	72.916666666667	36	       141
Frame#	Time	Sacral			L.Shoulder			Chest			R.Shoulder			Neck			R.ASIS			L.ASIS			R.Thigh.Superior			R.Thigh.Lateral			R.Thigh.Inferior			R.Patella			L.Thigh.Superior			L.Thigh.Lateral			L.Thigh.Inferior			L.Patella			L.Shank.Superior			L.Shank.Lateral			L.Shank.Inferior			R.Shank.Superior			R.Shank.Lateral			R.Shank.Inferior			R.Heel			R.Midfoot.Superior			R.Midfoot.Lateral			R.Toe			L.Heel			L.Midfoot.Lateral			L.Midfoot.Superior			L.Toe			L.Elbow			L.Wrist			R.Elbow			R.Wrist			
		X1	Y1	Z1	X2	Y2	Z2	X3	Y3	Z3	X4	Y4	Z4	X5	Y5	Z5	X6	Y6	Z6	X7	Y7	Z7	X8	Y8	Z8	X9	Y9	Z9	X10	Y10	Z10	X11	Y11	Z11	X12	Y12	Z12	X13	Y13	Z13	X14	Y14	Z14	X15	Y15	Z15	X16	Y16	Z16	X17	Y17	Z17	X18	Y18	Z18	X19	Y19	Z19	X20	Y20	Z20	X21	Y21	Z21	X22	Y22	Z22	X23	Y23	Z23	X24	Y24	Z24	X25	Y25	Z25	X26	Y26	Z26	X27	Y27	Z27	X28	Y28	Z28	X29	Y29	Z29	X30	Y30	Z30	X31	Y31	Z31	X32	Y32	Z32	X33	Y33	Z33	

36	20.590000000000	861.981730201871	1000.077211911356	475.721169734936	1045.468397289320	1425.594852889604	292.596233329062	1136.198233539971	1365.785370287113	464.195275503492	1036.935244767915	1440.902352901532	629.040151803410	1013.640340343158	1492.811508102500	447.127551268956	1084.956665061634	944.007666399216	609.838453254217	1090.471694302051	960.029077766342	333.493132793493	1143.045998546065	748.530582492532	581.070844978201	1070.076816125628	633.991680872794	640.893127376530	1154.770218653832	587.203638684851	563.875225974160	1163.312600135524	497.973188223044	572.996034266549	1108.733460272924	733.429743706524	353.144129307644	1008.342326354360	628.955704822054	281.674248758140	1086.292376965199	537.369343164428	336.018460133890	1074.505387077841	457.238657483438	331.330892616290	1013.412647996987	399.321388071421	325.578747515606	879.221589673707	337.979407219436	278.739362680522	883.567854887653	208.365190840545	335.063013560405	1135.107894818188	408.121039314608	580.180329810934	1064.039483726881	303.795602381810	640.807607043237	1109.909397649788	208.516915821238	581.159010962186	981.359771866965	43.774406111431	548.538768835998	1150.032731140975	97.474640895409	591.804158502461	1061.220601211821	37.611391154604	627.629381619629	1269.794080892284	44.099093749848	625.840659596582	707.455913483474	107.061348929961	376.864438063159	772.618307582813	72.559411220723	298.063595488733	871.601000490951	108.495310615363	317.504671814419	974.079157215351	35.284307917621	293.960284039773	1037.957654378033	1071.635261885554	179.692780332596	1191.245251568721	856.778806444783	177.654433404719	968.456586260413	1103.190385844069	755.245187052065	1072.605824046207	863.109119474400	760.382702476421	
37	20.603714285714	862.721748597871	1000.315215529578	480.112391723221	1044.505969265636	1426.298053313029	296.862415988240	1136.823363012273	1366.134254507914	467.525816190482	1039.046432115349	1440.915664209170	633.361139690837	1014.001641830206	1493.102325088851	451.741738397609	1086.575495277222	944.113697124396	612.663614375731	1090.150068437413	960.327015032603	336.528756615630	1142.835130769200	747.699262362132	584.547429424074	1068.378184074379	633.734846267507	643.473598660663	1152.966237538198	586.451028556683	566.706995450019	1160.721006974225	497.167566384636	575.313832505214	1114.051443327334	735.265318741710	355.773898124990	1017.667052402103	628.548181411471	283.416014760737	1098.346531962472	538.429966036863	337.567655575030	1087.430851976269	457.030547044548	331.938125448801	1024.147659536933	399.411076288675	326.324953378611	887.782542885812	343.062985377045	279.453522510617	887.807894882748	213.287171424621	334.994924411556	1132.007138025834	407.514202308668	582.011802239296	1060.319862358831	303.431116445389	642.135441227906	1105.531256475792	208.121903144801	581.983361960076	976.031484717864	43.794371133547	548.719060993420	1144.691149688028	97.290465721501	592.062884425941	1055.870622589554	37.584793179000	627.848518749963	1264.501052390335	43.785650075787	626.131976665108	707.881951243339	120.603818689575	376.368816998386	771.083954938317	82.152986654362	297.769233517182	871.862413274710	112.487198494001	317.045811931549	969.024048209215	34.355231701216	294.063482521221	1034.146233837672	1072.529971490338	183.818086491100	1179.488257036771	852.325377894816	176.965342598054	975.595489513700	1102.786817773562	761.390877624040	1089.908007611670	867.497546055593	763.751816880620	
38	20.617428571429	863.136020602664	1000.467730163311	484.417661557733	1043.425147154033	1426.833280017976	300.981536329167	1137.407330253084	1366.227910364406	470.629122745792	1041.323932787716	1440.749577297464	637.528540365165	1014.426617916434	1493.261781131702	456.217129722431	1087.908630759653	944.094102241747	615.285937998722	1089.394184793452	960.428330531631	339.365915514121	1142.400966099014	746.823972539784	587.887722387903	1066.526867811754	633.397664890487	645.923697296005	1151.009053258656	585.672928307884	569.389004922611	1157.987060757331	496.349446531511	577.487923471530	1119.326882183233	737.363952355058	358.349821430811	1027.238511975972	628.344288654800	285.167396690987	1110.562039444507	539.946101985318	339.361450207723	1100.665734676851	457.350319725667	333.063016707196	1035.420144027506	399.846160813986	327.420887795197	897.188149160165	348.450392783371	280.216859434518	892.743036613644	218.720196139364	335.185843739322	1128.791480930705	406.876606621004	583.714308561357	1056.503068278311	303.043872651251	643.361274469398	1101.052940525540	207.699367030196	582.736239249949	970.594575195837	43.804880992252	548.875640019464	1139.257517262110	97.049266594364	592.278296565138	1050.414706029184	37.543876199603	628.042605855750	1259.103827977265	43.433766675278	626.403690913834	709.290294670122	134.980579242891	375.941920944057	770.431806186345	92.782570405686	297.515018228972	872.786486348170	117.213209421040	316.868993280760	964.382316761824	33.419018281532	294.236214646123	1030.335154356041	1073.331746474244	187.637639011415	1167.488196787393	848.161143526990	176.271634354636	983.032381937073	1102.374665664162	767.621881623928	1107.342360388960	872.393642013676	767.003822599621	
39	20.631142857143	863.232947406935	1000.546458410730	488.609516941629	1042.252915231898	1427.228010605730	304.918774248015	1137.934149278268	1366.091288112399	473.488078568353	1043.715297427574	1440.424409570115	641.501528416498	1014.907474024046	1493.317411360521	460.509874412332	1088.943924918771	943.967111654293	617.707799468010	1088.213699256807	960.364679418351	342.004955153683	1141.808691110804	745.959987185216	590.966846393097	1064.685550958352	633.011466472716	648.206392776215	1149.006290676943	584.903688943595	571.821356458026	1155.225730970181	495.530191821999	579.447059405679	1124.408320696135	739.763193017585	360.879403475909	1036.814733449199	628.447987922856	286.949425529933	1122.664545356498	541.995583946795	341.377410243415	1113.961414293131	458.276682512697	334.660423575367	1046.997177857669	400.706373470575	328.838435839355	907.212204273516	354.083012394133	281.052438389453	898.307902556734	224.561848607832	335.634361758889	1125.557083026590	406.220451321132	585.240399614500	1052.686935259804	302.659786996239	644.471836264881	1096.534006025693	207.262502036699	583.396757623223	965.078180202308	43.812075946315	549.023785204832	1133.768494039268	96.792048358277	592.467381978580	1044.887349361091	37.499495585229	628.218640374298	1253.632191962664	43.072672960747	626.653815632819	711.707986664477	149.727308859653	375.602411724099	770.795404560847	104.104407268783	297.318495486561	874.454275455502	122.587337051929	316.971251996180	960.445671586121	32.580735354971	294.482023789797	1026.453164827409	1074.052735701796	191.152745827320	1155.309754708639	844.352748340448	175.622564030991	990.803010800576	1101.949125140595	773.846413331644	1124.832068471645	877.759037877098	770.092144115855	
40	20.644857142857	863.035819604025	1000.579317345981	492.670525587964	1041.013846748182	1427.522149692567	308.646040176044	1138.388670965862	1365.773554164871	476.094783781794	1046.160671002511	1439.981486560075	645.245096806749	1015.430316003501	1493.308083559066	464.581128614768	1089.682659124368	943.755198543310	619.937026934834	1086.634466637209	960.190630783345	344.459561709997	1141.100391412045	745.144653297332	593.689799660054	1062.948148121135	632.604171367190	650.293107733618	1147.014707208687	584.165149663804	573.934178144860	1152.501521425760	494.719742818776	581.138471423173	1129.149787277888	742.485401022324	363.380643537600	1046.154441026054	628.946742489185	288.770635584604	1134.398315556523	544.629333680527	343.563963642869	1127.077041896086	459.861668324151	336.626851434520	1058.650871645734	402.053083009411	330.507385321137	917.614962354892	359.866641365923	281.972952502564	904.460075902189	230.653355226659	336.312697426343	1122.354937583519	405.560786267976	586.558698118708	1048.925164927943	302.298686982283	645.455553120004	1092.011573670482	206.826967826718	583.952872494608	959.512972356993	43.820699088238	549.173025302197	1128.258757182467	96.557809104949	592.651734712107	1039.321605140198	37.459935359779	628.381435869224	1248.114746765385	42.729418607823	626.881264528921	715.157489193919	164.260799109425	375.367007840754	772.318966444601	115.648999074182	297.194502716287	876.986234898346	128.434536031210	317.324146267435	957.588438886588	31.967669858441	294.793915646251	1022.425702722554	1074.721149000939	194.376794345314	1143.022481385448	840.962001852370	175.061174859605	998.930344116249	1101.530954598953	779.968067674988	1142.309898599979	883.570428707633	772.961639111502	
